<svg xmlns="http://www.w3.org/2000/svg" viewBox="0 0 240 234">
  <path fill="#E2761B" d="M234.5 20.8L131.9 81.6l14.7-34.3z"/>
  <path fill="#E4761B" d="M5.5 20.8l101.9 61.5-13.2-34.3zM199.1 159.9l13.9 47.6 29.8-8.2-16.8-42.1zM1.2 198.3l30.1 8.2 13.4-47.6-16.4 42.1zM71.4 98.2l-12.1 18.2 43.4 12.7-1.2-45.7zM168.6 98.2l-29.4-14.8-1 45.7 43.4-12.7zM81.3 159.9l11.4 34.9-38.7-11.5zM158.7 159.9l27.3 23.4-38.7 11.5z"/>
  <path fill="#E4761B" d="M108.3 194.8l-11.4-34.9h23.4z"/>
  <path fill="#D7C1B3" d="M81.3 159.9l15.6-13.1-11.2-8.4zM153.1 146.8l15.5 13.1-4.3-21.5z"/>
  <path fill="#233447" d="M96.9 116.4l-43.4-12.7 32.1 4.3zM143.1 116.4l11.3-8.4 32.1-4.3-43.4 12.7z"/>
  <path fill="#CD6116" d="M59.3 98.2l12.1 18.2-4.3-21.5zM168.6 98.2l-7.8 16.7 4.3 21.5z"/>
  <path fill="#E4751F" d="M81.3 159.9l4.3-34.9-15.6.4zM154.4 125l4.3 34.9 11.3-34.5z"/>
  <path fill="#F6851B" d="M168.6 98.2l-25.5 48.6-1-24.4zM71.4 98.2l26.5 24.2-1 24.4z"/>
  <path fill="#C0AD9E" d="M108.3 194.8l2.2-34.9-24.3-.4zM129.5 159.9l2.2 34.9 22.1-34.5z"/>
  <path fill="#161616" d="M129.5 159.9l-27.3-13.1 19.1-2.6zM96.9 146.8l27.3 13.1 8.3-15.7z"/>
  <path fill="#763D16" d="M168.6 98.2l7.8-16.7-25.5-9.3zM63.6 81.5l7.8 16.7-26.5-9.3z"/>
</svg>