<svg xmlns="http://www.w3.org/2000/svg" viewBox="0 0 388 388" fill="none">
  <rect width="388" height="388" rx="60" fill="#3B99FC"/>
  <path d="M97 193.5C97 141.904 138.904 100 190.5 100C242.096 100 284 141.904 284 193.5C284 245.096 242.096 287 190.5 287C138.904 287 97 245.096 97 193.5Z" fill="white"/>
  <path fill-rule="evenodd" clip-rule="evenodd" d="M190.5 169C166.969 169 147.833 182.633 137.709 201.667C132.647 211.134 129.5 221.983 129.5 233.5C129.5 258.031 143.133 277.167 162.167 287.291C171.634 292.353 182.483 295.5 194 295.5C218.531 295.5 237.667 281.867 247.791 262.833C252.853 253.366 256 242.517 256 231C256 206.469 242.367 187.333 223.333 177.209C213.866 172.147 203.017 169 191.5 169H190.5Z" fill="#3B99FC"/>
</svg>